<svg xmlns="http://www.w3.org/2000/svg" viewBox="0 0 350 350" width="350" height="350">
<circle cx="175" cy="175" r="172" fill="#BBDCFC"/>
<g fill="none" stroke="#2699E6" stroke-width="8.64" stroke-linecap="round" stroke-linejoin="round">
<path d="M 141.0,147.0 223.0,146.0"/>
<path d="M 146.0,96.0 147.0,90.0 149.0,88.0 165.0,87.0 167.0,85.0 169.0,78.0 175.0,72.0 181.0,70.0 190.0,72.0 196.0,78.0 198.0,86.0 216.0,88.0 218.0,90.0 218.0,96.0"/>
<path d="M 139.0,182.0 225.0,182.0"/>
<path d="M 146.0,98.0 147.0,107.0 153.0,109.0 213.0,109.0 218.0,106.0 218.0,98.0"/>
<path d="M 225.0,220.0 188.0,220.0"/>
<path d="M 145.0,97.0 120.0,98.0 115.0,103.0 113.0,109.0 113.0,267.0 115.0,275.0 122.0,280.0 244.0,280.0 251.0,273.0 251.0,104.0 246.0,98.0 242.0,97.0 219.0,97.0"/>
<path d="M 209.0,244.0 189.0,245.0"/>
<path d="M 170.0,222.0 170.0,218.0 167.0,213.0 140.0,214.0 138.0,217.0 138.0,244.0 143.0,247.0 168.0,246.0 170.0,243.0 170.0,222.0"/>
</g></svg>